<?xml version="1.0" encoding="UTF-8"?>
<svg id="Layer_1" data-name="Layer 1" xmlns="http://www.w3.org/2000/svg" viewBox="0 0 418.38 101.19">
  <defs>
    <style>
      .cls-1, .cls-2 {
        stroke-width: 0px;
      }

      .cls-2 {
        fill: #fff;
      }
    </style>
  </defs>
  <path class="cls-1" d="m416.74,26.26c-.11-.25-.21-.5-.33-.75-.11-.25-.21-.5-.33-.74-.11-.25-.21-.5-.33-.75-.11-.25-.21-.5-.33-.74-.11-.25-.21-.5-.33-.75-.11-.25-.21-.5-.33-.74-.11-.25-.21-.5-.33-.74-.11-.25-.21-.5-.33-.75-.11-.25-.21-.5-.33-.75-.11-.25-.21-.5-.33-.74-.34-.78-.73-1.54-1.2-2.26-2.8-4.23-7.53-6.77-12.6-6.77h-24.93c-.35,0-.7.01-1.05.04-.18,0-.37,0-.55,0h-24.12c-4.03,0-8.11,1.22-11.58,3.44-2.65-2.15-5.99-3.37-9.49-3.38,0,0-24.93-.06-24.94-.06-.64,0-1.27.04-1.9.12-.89-.16-1.8-.25-2.72-.25h-40.15c-11.55,0-23.38,5.83-30.74,14.44-.08-.18-.16-.37-.25-.55-.11-.25-.21-.5-.33-.75-.11-.25-.21-.5-.33-.74-.11-.25-.21-.5-.33-.74-.11-.25-.21-.5-.33-.75-.11-.25-.21-.5-.33-.75-.11-.25-.21-.5-.33-.74-2.32-5.48-7.73-9.21-13.9-9.21,0,0-25.35.03-25.35.03-8.31,0-15.06,6.73-15.09,15.04v1.45s-1.79,1.79-1.79,1.79c-.08-.19-.17-.38-.26-.57-.11-.25-.22-.5-.33-.75-.11-.25-.22-.5-.33-.75-.11-.25-.22-.5-.33-.74-.56-1.29-1.22-2.55-2.01-3.74-4.89-7.39-13.42-11.62-23.4-11.62h-35.84c-.04-.09-.08-.17-.12-.26-.11-.25-.21-.5-.33-.74-.34-.77-.72-1.52-1.19-2.24-2.8-4.23-7.53-6.77-12.6-6.77H15.24C6.98,0,.25,6.63.13,14.89c-.21,14.84-.2,14.92.22,16.89.31,1.48.8,2.88,1.43,4.18.11.25.21.5.33.75.11.25.21.5.33.75.11.25.21.5.33.74.11.25.21.5.33.75.11.25.21.5.33.75.11.25.21.5.33.74.11.25.21.5.33.75.11.25.21.5.33.74.11.25.21.5.33.75.11.25.21.5.33.75,1.62,3.76,4.44,6.74,8.03,8.58l-8.02,18.88c-1.75,4.13-1.56,8.78.44,12.73.11.25.21.5.33.75.11.25.21.5.33.75.11.25.21.5.33.74.11.25.21.5.33.75.11.25.21.5.33.75.11.25.21.5.33.74.11.25.21.5.33.75.11.25.21.5.33.74.11.25.21.5.33.75.11.25.21.5.33.75.34.78.73,1.54,1.2,2.26,2.8,4.23,7.53,6.77,12.6,6.77h17.9c8.3,0,16.3-5.18,19.49-12.63l1.27-3c.03.06.06.12.09.17.11.25.21.5.33.75.11.25.21.5.33.74.11.25.21.5.33.75.11.25.21.5.33.75.11.25.21.5.33.74.11.25.21.5.33.75.11.25.21.5.33.74.11.25.21.5.33.75.11.25.21.5.33.75.34.78.73,1.54,1.2,2.26,2.8,4.23,7.53,6.77,12.6,6.77h16.25c5.7,0,11.14-2.33,15.06-6.18,2.74,4.3,7.52,6.99,12.74,6.99h17.95c2.05,0,4.05-.33,5.94-.93h13.05c.07,0,8.27-.12,8.27-.12,6.53-.04,11.02-3.03,13.69-5.35h10.9c3.28,3.33,7.86,5.35,12.88,5.35,0,0,19.19.13,19.22.13,2.38,0,4.69-.56,6.76-1.6,3.03.98,6.34,1.5,9.81,1.5h34.98c2.5,0,4.95-.45,7.24-1.27,1.89.83,3.96,1.28,6.09,1.28h16.26c5.2,0,10.29-2.04,14.15-5.4,3.45,3.47,8.23,5.44,13.45,5.44h20.85c1.29,0,2.56-.17,3.79-.48,1.06.23,2.14.35,3.25.35h16.26c8.47,0,16.33-5.12,19.55-12.73l12.28-28.9c.21-.49.39-.99.55-1.5.23-.43.45-.87.64-1.33l7.08-16.66c1.75-4.13,1.57-8.79-.43-12.74Z"/>
  <g>
    <path class="cls-2" d="m373.81,22.78h-24.12c-1.23,0-2.57.44-3.67,1.21l-25.43,17.67,7.99-18.82-24.9-.06-.05,10.76-17.5,41.21h16.26c2.32,0,4.81-1.55,5.64-3.52,2.4-5.64.48-3.31,12.79-11.8l-.02.02,3.13-2.13-3.24,5.63,6.09,10.25c.6,1.02,1.77,1.61,3.21,1.61h20.85l-15.09-25.57,38.05-26.44Z"/>
    <path class="cls-2" d="m136.47,60.65c6.07-2.43,11.07-6.91,13.14-11.78l4.76-11.22c3.41-8.04-1.84-14.66-11.22-14.66h-50.31l-.05,10.75-17.49,41.19h16.25c2.32,0,4.8-1.55,5.64-3.52l3.77-8.87,13.02-.05s.01,0,.02,0l5.35,13.24h.21c.19,0,.24,0,.23,0h17.47c2.81,0,4.88-2.59,3.86-4.81l-4.66-10.29Zm-2.95-22.08l-3.13,7.38c-.38.88-1.69,1.66-2.8,1.66h-20.27l2.95-6.95-5.66-2.74h28.17c.43,0,.7.12.77.23.05.07.03.24-.05.42Z"/>
    <path class="cls-2" d="m82.26,28.69c2.28,0,4.77-1.53,5.58-3.42l5.21-12.29H15.97s-.19,13.18-.11,13.56c.31,1.45,1.41,2.12,3.21,2.12h.09v.03s19.28,0,19.28,0c.46,0,.69.31.54.69l-19.23,45.28h17.9c2.28,0,4.77-1.54,5.58-3.42l16.37-38.55-7.91-3.99h30.57Z"/>
    <path class="cls-2" d="m255.38,40.81l-5.85-2.83h38.88c2.33,0,4.81-1.55,5.64-3.52l5.02-11.81h-40.15c-8.99,0-18.91,6.1-22.12,13.61l-10.18,23.79c-1.54,3.61-1.39,7.1.42,9.85,2.03,3.07,5.95,4.83,10.78,4.83h34.98c2.33,0,4.81-1.55,5.64-3.52l5.09-11.97h-35.99l7.83-18.43Z"/>
    <path class="cls-2" d="m400.35,22.75h-24.93l-.05,10.75-17.47,41.16h16.26c2.33,0,4.81-1.55,5.64-3.52l12.27-28.9-5.85-2.83h7.04l7.08-16.66Z"/>
    <path class="cls-2" d="m186.71,22.88l-.03,7.64-38.24,38.55-5.92,5.76h13.77l8.12-.12c2.21,0,3.56-1.24,5.11-2.75l-5.36-2.59h34.54l.46,3c.21,1.41,1.41,2.35,2.96,2.35l19.12.13-9.21-51.98-25.33.03Zm-1.17,32.09l11.13-13.13,1.33,13.13h-12.46Z"/>
  </g>
</svg>