<?xml version="1.0" encoding="UTF-8"?>
<svg id="Layer_1" data-name="Layer 1" xmlns="http://www.w3.org/2000/svg" viewBox="0 0 190.66 161.56">
  <defs>
    <style>
      .cls-1, .cls-2 {
        stroke-width: 0px;
      }

      .cls-2 {
        fill: #fff;
      }
    </style>
  </defs>
  <path class="cls-1" d="m30.39,161.56c-7.74,0-14.97-3.88-19.24-10.34-4.27-6.46-5.02-14.63-2-21.75l22.9-53.92h-2.78c-.95,0-1.9-.06-2.83-.17-13.1-1.1-23.28-9.73-25.9-22.17-.64-3.11-.68-3.29-.29-30.46C.43,10.13,10.71,0,23.32,0h144.27c7.74,0,14.97,3.88,19.24,10.34s5.02,14.62,2,21.75l-9.76,22.99c-5.14,12.06-18.16,20.47-31.68,20.47h-23.97l-27.84,65.56c-5.14,12.06-18.17,20.46-31.68,20.46H30.39Z"/>
  <path class="cls-2" d="m167.59,23.07l-9.76,22.99c-1.51,3.54-6.18,6.42-10.44,6.42h-57.21l14.8,7.47-30.64,72.13c-1.51,3.54-6.18,6.4-10.44,6.4H30.39l35.98-84.73c.3-.71-.15-1.28-1-1.28H29.27l.02-.06h-.16c-3.38,0-5.44-1.27-6.01-3.98-.15-.72.2-25.37.2-25.37h144.27Z"/>
</svg>